<?xml version="1.0" standalone="no"?>
<!DOCTYPE svg PUBLIC "-//W3C//DTD SVG 20010904//EN"
 "http://www.w3.org/TR/2001/REC-SVG-20010904/DTD/svg10.dtd">
<svg version="1.0" xmlns="http://www.w3.org/2000/svg"
 width="260.000000pt" height="260.000000pt" viewBox="0 0 260.000000 260.000000"
 preserveAspectRatio="xMidYMid meet">
<metadata>
Created by potrace 1.14, written by Peter Selinger 2001-2017
</metadata>
<g transform="translate(0.000000,260.000000) scale(0.100000,-0.100000)"
fill="#000000" stroke="none">
<path d="M1775 2080 c-32 -33 -57 -61 -54 -63 2 -2 63 -43 134 -90 72 -48 161
-111 199 -140 l68 -54 59 63 c33 35 59 67 59 72 0 17 -374 272 -400 272 -3 0
-32 -27 -65 -60z"/>
<path d="M1563 1838 l-62 -62 97 -57 c53 -31 148 -93 210 -138 l113 -81 65 64
c35 35 64 66 64 69 0 10 -248 171 -340 221 l-86 45 -61 -61z"/>
<path d="M993 1599 c-66 -12 -120 -46 -218 -138 -199 -186 -441 -383 -589
-480 l-75 -49 87 -88 c49 -49 95 -95 105 -102 14 -12 29 -3 124 79 89 77 315
274 359 314 6 6 44 39 84 75 41 36 79 71 86 78 8 7 30 20 50 28 64 27 119 6
222 -85 253 -222 570 -480 832 -676 80 -59 150 -111 155 -116 6 -4 61 44 127
110 l118 118 -83 46 c-84 48 -232 141 -334 212 -67 45 -390 286 -425 315 -13
11 -72 59 -133 107 -60 48 -116 93 -123 100 -31 31 -130 102 -167 120 -37 19
-89 33 -140 38 -11 1 -39 -2 -62 -6z"/>
</g>
</svg>
